<svg id="Слой_1" data-name="Слой 1" xmlns="http://www.w3.org/2000/svg" viewBox="0 0 587 456"><defs>
    <style>.cls-1{fill:#6fbc85;stroke:#1d1d1b;stroke-miterlimit:10;opacity:0.1;}</style></defs>
    <path class="cls-1" d="M671.5,720V362h6V326h41v-1h1v-1h2v-1h1l1-1h1l1-1,1-1h1v-1h1l1-1h1l1-1h1v-1h1l1-1h1v-1h1l1-1h43v1h1v1h2v1h1l1,1h1v1h2v1h1l1,1h1v1h1l1,1h1v1h2v1h1v1h2v1h60v7h-17v34h2V531h-2v26h-82V721h-89Z" transform="translate(-671 -312.5)"/>
    <path class="cls-1" d="M925.5,755h-42l-1,1-1,1h-1l-1,1-2,1-1,1-2,1-1,1h-1l-1,1-1,1h-1l-1,1-1,1h-1l-1,1-1,1h-44l-1-1-1-1-2-1-2-1-1-1h-1l-1-1-1-1-1-1h-1v-1h-1l-1-1h-1v-1h-2v-1h-1l-1-1h-41V557h165Z" transform="translate(-671 -312.5)"/>
    <path class="cls-1" d="M1089.5,755h-40l-21,13h-42l-19-13h-42V557h47v1h24v-1h180V721h-87Z" transform="translate(-671 -312.5)"/>
    <path class="cls-1" d="M1257.5,721h-81V557h-172v-4h2V530h-2V334h-19v-8h62l19-13h43l19,13h40v36h89Z" transform="translate(-671 -312.5)"/>
</svg>